<?xml version="1.0" encoding="UTF-8"?>
<svg id="Layer_1" data-name="Layer 1" xmlns="http://www.w3.org/2000/svg" viewBox="0 0 320.22 327.28">
  <defs>
    <style>
      .cls-1 {
        fill: #ed1942;
      }
    </style>
  </defs>
  <path class="cls-1" d="M315.37,238.43c-2.76-6.91-8.16-17.02-18.39-25.71-3.04-2.58-9.22-7.35-18.22-10.9-8.83-3.48-15.31-3.8-27.14-4.37-4.48-.22-6.95,.06-9.13,1.55-1.66,1.13-2.51,2.52-3.4,2.22-1.63-.56-.2-5.66-2.96-7.54-1.01-.69-1.75-.38-2.51-1.33-1.09-1.36-.39-3.02-1.33-3.55-.82-.45-1.7,.59-2.66,.15-.96-.44-1.12-1.98-1.18-2.51-.8-6.54-4.46-12.41-6.65-18.62-.71-2.01-.77-2.11-.86-2.61-.69-3.77,1.06-6.45-.74-9.16,0,0-.21-.39-2.97-4.46,3.87-5.34,5.2-6.19,5.2-6.19,1.99-1.26,3.98-1.37,6.19-1.49,4.95-.26,6.18,1.53,9.16,.5,2.46-.85,4.79-3.17,4.46-4.95-.31-1.65-2.87-2.41-5.69-3.22-6.93-1.97-8.86,.06-11.63-1.98-3.39-2.48-2.06-6.63-5.45-7.92-1.97-.75-3.11,.39-5.94-.74-2.07-.83-1.84-1.59-3.71-2.23-3.06-1.04-5.29,.45-6.19-.74-.56-.74,.18-1.49,0-2.72-.41-2.76-4.86-3.93-8.66-5.69-3.16-1.47-5.29-3.19-9.56-6.63-11.06-8.93-9.23-16.99-18.39-22.55-1.27-.77-3.68-2.06-5.55-4.86-1.75-2.61-.9-3.34-2.78-7.63-2.14-4.9-3.94-5.52-4.16-9.02-.11-1.77,.31-2.14,0-4.16-.51-3.28-1.89-4.03-1.39-5.55,.66-2,3.35-1.6,4.16-3.82,.67-1.83-.81-3.07,0-4.16,.74-.99,2.28-.38,5.55-.69,3.07-.3,4.94-.48,5.9-1.73,1.01-1.32-.08-2.41,0-8.33,.03-2.29,.21-3.23,.69-4.16,1-1.93,2.28-1.92,2.43-3.12,.24-1.91-2.93-2.49-4.16-5.9-.44-1.22-.41-2.43-.35-4.86,.11-4.14,.99-4.67,.35-5.9-1.15-2.2-4.13-.84-6.94-3.47-1.95-1.82-1.19-3.12-3.47-5.2-.65-.59-2.46-2.26-4.86-2.43-2.95-.21-3.5,2.07-7.98,3.82-3.89,1.52-4.74,.28-8.67,2.08-.69,.31-2.89,1.37-5.2,3.47-1.24,1.13-3.4,3.09-4.51,5.9-.49,1.23-1.18,3.64,.35,10.06,.8,3.38,2.28,8.14,5.2,13.53l.38,.74c-.16,.23-.4,.58-.72,.98,0,0-1.08,1.42-2.37,2.71-5.51,5.53-11.3,9.29-11.3,9.29-9.71,6.3-8.57,21.48-21.05,41.1-2.44,3.84-7.8,11.63-6.95,17.2,.16,1.06,.79,3.59-.48,5.95-.97,1.8-2.17,1.91-2.65,3.71-.55,2.06,.75,2.97,0,4.77-.57,1.35-1.42,1.1-2.47,2.65-1.11,1.63-1.7,4.15-.76,5.92,.85,1.61,2.17,1.07,3.34,2.48,2.41,2.9-1.79,6.87,.37,11.14,1.22,2.41,3.57,3.14,3.71,5.94,.04,.84-.13,1.4,.25,2.23,.76,1.64,2.35,1.36,3.37,2.75,1.3,1.77-.43,3.35,.77,5.3,.99,1.61,3.39,2.52,5.41,1.99,1.01-.27,1.71-.84,2.1-1.22l2.54,.44,1.66,1.99,3.09,.66,4.31,14.8h-2.02l-1.01-2.69h-1.68l-.08,8.25h2.52l.17-2.52,1.18-.93,2.1-.34,1.85,7.24-2.34,1.36,.27,1.53,1.34,.91,1.7,.11,5.33,16.23-12.85,9.53c-4.29-4.64-15.23-15.17-32.68-19.05-2.91-.64-13.9-2.86-27.7,.22-14.39,3.21-23.86,10.4-27.27,13.2-4.01,3.29-16.87,14.17-21.43,33.33-3.11,13.07-.85,23.65,.22,28.35,1.37,6.07,5.71,23.99,22.73,37.23,17.29,13.45,36.27,13.21,42.85,12.77,5.06-.34,22.99-2.15,37.44-15.37,9.42-8.62,14.54-19.52,16.42-24,.78-1.87,1.36-3.47,1.74-4.59l6.04,.29c4.14,5.74,8.26,7.83,11.28,8.66,7.07,1.96,14.05-1.29,16.18,1.96,1.22,1.86-.42,3.9,1.14,5.39,2.14,2.05,7.15,.06,7.68-.16,2.86-1.17,2.55-2.24,4.41-2.78,4.52-1.3,7.41,4.66,12.42,3.76,2.67-.48,5.18-2.78,5.23-4.9,.02-.61-.15-2.2-5.56-5.72-6.97-4.54-10.35-4.29-15.2-8.66-2-1.8-2.99-2.7-3.76-4.25-2.54-5.15,.65-9.79-2.13-15.69-.65-1.38-1.41-2.38-1.89-2.94l50.68-66.02,10.22-8.47,1.03,.62,.31,5.16,9.36,15.31c-1.97,1.32-4.69,3.23-7.81,5.69-7.31,5.79-14.96,11.84-20.5,20.83-8.05,13.05-8.04,26.41-7.97,31.08,.04,2.83,.42,16.16,8.62,30.59,3.05,5.36,10.98,18.85,27.82,26.52,17.42,7.93,33.37,4.63,39.54,3.25,5.44-1.21,21.16-4.94,34.17-19.36,3.5-3.89,13.76-16.26,15.62-35.15,1.42-14.45-2.79-25.37-4.56-29.78ZM63.01,319.68c-30.34,0-54.94-24.6-54.94-54.94s24.6-54.94,54.94-54.94,54.94,24.6,54.94,54.94-24.6,54.94-54.94,54.94ZM213.29,177.21l-6.21,3.84-49.07,64.24,2.1-18.29-2.1-8.33,3.26-3.98,1.63-6.52v-8.69l50.4-25.17v2.9Zm-31.3,3.73c-.3-.49,2.26-2.03,4.12-6.18,.63-1.4,3.01-7.19,.41-10.91-.75-1.07-1.66-1.62-2.06-1.85-14.85-8.75-28.14-20.3-43.86-27.38-2.7-1.22-6.55-2.87-7.62-6.38-.59-1.92,.1-2.96,.82-11.12,.28-3.12,.2-3.23,.41-4.12,.99-4.16,3.93-6.97,6.18-8.65l43.44,28.21,7.62,5.15,5.35-3.5,4.53,5.83-.41,6.53,4.53,4.74,3.71,2.47h2.88l-.41,7.41,1.65,4.53c-24.06,13.2-30.82,16-31.3,15.24Zm75.36,137.32c-30.34,0-54.94-24.6-54.94-54.94s24.6-54.94,54.94-54.94,54.94,24.6,54.94,54.94-24.6,54.94-54.94,54.94Z"/>
</svg>