<?xml version="1.0" encoding="UTF-8"?>
<svg id="Layer_1" data-name="Layer 1" xmlns="http://www.w3.org/2000/svg" viewBox="0 0 174.73 169.57">
  <defs>
    <style>
      .cls-1 {
        fill: #f27294;
      }
    </style>
  </defs>
  <path class="cls-1" d="M155.2,33.59c-3.6-1.65-9.38-3.57-16.51-3.17-2.12,.12-6.25,.55-11.02,2.47-4.68,1.89-7.29,4.15-12.06,8.26-1.81,1.56-2.66,2.57-2.95,3.94-.22,1.05-.04,1.89-.5,2.1-.83,.38-2.15-2.11-3.9-1.82-.64,.1-.81,.5-1.46,.41-.92-.13-1.26-1.02-1.81-.88-.48,.12-.44,.85-.97,1.03-.53,.18-1.15-.35-1.38-.54-2.71-2.23-6.26-3.15-9.39-4.74-1.01-.52-1.07-.53-1.29-.69-1.65-1.2-1.95-2.88-3.64-3.26,0,0-.23-.07-2.78-.63-.47-3.48-.26-4.29-.26-4.29,.3-1.22,1.03-1.98,1.84-2.84,1.81-1.91,2.94-1.68,3.71-3.16,.63-1.23,.68-2.98-.1-3.54-.73-.52-1.99,.12-3.37,.85-3.4,1.78-3.39,3.27-5.21,3.5-2.22,.28-3.22-1.8-5-1.06-1.04,.43-1.06,1.29-2.56,1.89-1.1,.44-1.29,.06-2.25,.5-1.56,.72-1.88,2.11-2.66,1.98-.49-.08-.48-.64-1-1.05-1.17-.91-3.31,.27-5.42,.98-1.76,.59-3.21,.71-6.11,.95-7.53,.61-9.78-3.16-15.35-1.96-.77,.17-2.17,.55-3.92,.16-1.63-.36-1.57-.96-3.87-1.93-2.62-1.1-3.54-.69-4.91-1.95-.69-.64-.66-.94-1.53-1.6-1.4-1.08-2.21-.86-2.57-1.63-.48-1.01,.7-1.84,.21-3-.41-.95-1.44-.89-1.53-1.6-.08-.65,.74-.98,1.89-2.3,1.07-1.24,1.73-1.99,1.64-2.83-.1-.88-.91-.9-3.05-3.21-.83-.9-1.1-1.32-1.26-1.86-.32-1.11,.17-1.57-.21-2.09-.61-.83-2.04,.11-3.77-.75-.62-.31-1.05-.79-1.91-1.75C15.55,.84,15.7,.31,15,.07c-1.25-.43-1.9,1.19-3.95,1.2-1.42,0-1.6-.76-3.24-.73-.47,0-1.78,.03-2.76,.84-1.21,1-.59,2.08-1.68,4.4-.95,2.01-1.72,1.85-2.58,3.98-.15,.37-.61,1.59-.74,3.24-.07,.89-.18,2.43,.42,3.93,.26,.65,.88,1.84,3.82,3.75,1.55,1.01,3.86,2.3,6.96,3.31l.42,.15c.02,.15,.05,.37,.08,.64,0,0,.1,.94,.08,1.91-.1,4.15-.96,7.72-.96,7.72-1.43,5.98,4.56,11.42,6.95,23.56,.47,2.37,1.25,7.34,3.62,9.18,.45,.35,1.62,1.09,2,2.47,.29,1.05-.14,1.53,.34,2.4,.54,1,1.38,.87,1.75,1.84,.28,.73-.14,.94,.02,1.93,.17,1.03,.87,2.22,1.87,2.56,.92,.31,1.23-.38,2.2-.27,1.99,.23,1.83,3.3,4.23,4.16,1.35,.48,2.53-.09,3.61,.93,.32,.31,.46,.59,.91,.77,.89,.36,1.4-.34,2.31-.17,1.15,.21,1.06,1.45,2.24,1.76,.97,.26,2.23-.27,2.81-1.22,.29-.47,.35-.95,.36-1.24l1.14-.76,1.37,.16,1.44-.88,7.08,4.13-.78,.74-1.38-.67-.65,.62,2.99,3.21,.97-.92-.86-1.03,.11-.79,.69-.9,3.36,2.11-.4,1.38,.66,.49,.85-.14,.7-.58,8,4.3-1.46,8.38c-3.35-.22-11.43-.27-19.57,4.63-1.36,.82-6.41,3.99-10.6,10.23-4.37,6.51-5.39,12.75-5.67,15.08-.34,2.74-1.31,11.64,3.95,20.7,3.59,6.18,8.34,9.43,10.47,10.85,2.75,1.84,10.99,7.16,22.4,6.02,11.59-1.15,18.82-8.2,21.2-10.78,1.83-1.98,8.08-9.25,8.8-19.64,.47-6.78-1.55-12.85-2.46-15.26-.38-1.01-.75-1.83-1.01-2.41l2.43-2.1c3.7,.7,6.05,0,7.52-.79,3.44-1.84,4.94-5.64,6.96-5.17,1.15,.27,1.27,1.66,2.42,1.66,1.58,0,2.78-2.6,2.9-2.88,.67-1.5,.16-1.8,.68-2.69,1.26-2.16,4.57-.92,6.17-3.1,.85-1.16,.98-2.97,.22-3.81-.22-.24-.86-.79-4.24-.17-4.35,.8-5.56,2.14-9.03,2.23-1.43,.04-2.14,.06-3.01-.26-2.87-1.05-3.33-4.01-6.57-5.27-.76-.29-1.42-.4-1.8-.44l-4.65-44.02,.84-7.01,.62-.14,2.01,1.88,9.21,2.47c-.28,1.23-.63,2.96-.92,5.06-.7,4.91-1.43,10.04-.27,15.54,1.68,7.98,6.58,13.12,8.31,14.9,1.05,1.08,6.08,6.08,14.53,8.63,3.14,.95,11.14,3.25,20.44,.03,9.62-3.33,14.56-10.44,16.43-13.23,1.65-2.46,6.35-9.66,6.08-19.98-.07-2.78-.65-11.31-6.85-19.27-4.75-6.09-10.37-8.76-12.66-9.81Zm-67.51,123.78c-11.7,11.12-30.19,10.65-41.3-1.05-11.12-11.7-10.65-30.19,1.05-41.3,11.7-11.12,30.19-10.65,41.3,1.05,11.12,11.7,10.65,30.19-1.05,41.3Zm5.73-109.97l-.99,3.76,4.62,42.74-5.89-7.82-3.86-2.44-.2-2.73-1.76-3.11-3.18-3.35,10.2-28.17,1.06,1.12Zm-10.7,12.9c-.3-.08,.13-1.61-.68-3.89-.27-.77-1.47-3.88-3.84-4.36-.68-.14-1.23-.02-1.47,.04-8.93,2.07-18.29,2.49-26.94,5.51-1.49,.52-3.58,1.29-5.27,.33-.93-.53-1.05-1.18-3.76-4.59-1.04-1.3-1.11-1.32-1.35-1.74-1.14-1.97-1.04-4.12-.79-5.6l27.08-5.04,4.82-.81,.78-3.31,3.88,.59,2.23,2.67,3.48,.17,2.33-.41,1.11-1.06,2.56,3.01,2.29,1.14c-4.44,13.9-6.02,17.46-6.48,17.34Zm79.36,25.32c-11.7,11.12-30.19,10.65-41.3-1.05-11.12-11.7-10.65-30.19,1.05-41.3,11.7-11.12,30.19-10.65,41.3,1.05s10.65,30.19-1.05,41.3Z"/>
</svg>