<?xml version="1.0" encoding="UTF-8"?>
<svg id="Layer_1" data-name="Layer 1" xmlns="http://www.w3.org/2000/svg" viewBox="0 0 344.27 301.25">
  <defs>
    <style>
      .cls-1 {
        fill: #ed1942;
      }

      .cls-2 {
        fill: none;
      }

      .cls-2, .cls-3 {
        stroke: #ee203f;
        stroke-miterlimit: 10;
      }

      .cls-3 {
        fill: #ee203f;
        stroke-width: 3px;
      }
    </style>
  </defs>
  <path class="cls-1" d="M297.18,17.65c-7.27-1.93-18.71-3.66-31.92-.63-3.93,.9-11.52,3.03-19.83,8.18-8.15,5.05-12.32,10.11-19.92,19.34-2.88,3.5-4.14,5.67-4.26,8.33-.08,2.03,.53,3.55-.26,4.09-1.44,.98-4.7-3.26-7.89-2.16-1.16,.4-1.36,1.19-2.59,1.23-1.77,.06-2.68-1.51-3.68-1.06-.86,.39-.55,1.74-1.49,2.24-.94,.51-2.28-.29-2.75-.56-5.78-3.3-12.74-3.88-19.1-5.86-2.06-.64-2.17-.65-2.64-.88-3.47-1.72-4.58-4.75-7.87-4.93,0,0-.45-.06-5.4-.28-1.99-6.36-1.87-7.95-1.87-7.95,.18-2.38,1.29-4.05,2.53-5.91,2.77-4.16,4.97-4.09,5.93-7.12,.79-2.5,.32-5.8-1.32-6.6-1.53-.74-3.69,.87-6.04,2.67-5.78,4.42-5.3,7.21-8.63,8.23-4.06,1.24-6.61-2.34-9.7-.37-1.8,1.14-1.56,2.75-4.19,4.36-1.92,1.18-2.4,.53-4.05,1.66-2.69,1.85-2.83,4.55-4.34,4.56-.94,0-1.1-1.05-2.21-1.64-2.48-1.34-6.11,1.56-9.84,3.58-3.1,1.67-5.78,2.36-11.14,3.74-13.91,3.57-19.33-2.78-29.37,1.28-1.39,.56-3.89,1.73-7.29,1.56-3.17-.16-3.25-1.29-7.86-2.36-5.26-1.22-6.85-.14-9.82-2.07-1.5-.98-1.55-1.55-3.37-2.51-2.96-1.57-4.41-.9-5.33-2.23-1.22-1.74,.72-3.68-.58-5.68-1.08-1.65-2.98-1.2-3.37-2.51-.36-1.2,1.07-2.07,2.79-4.92,1.61-2.66,2.6-4.29,2.16-5.83-.46-1.61-2-1.39-6.75-5.03-1.84-1.41-2.49-2.12-2.95-3.08-.96-1.97-.18-3-1.06-3.85-1.4-1.35-3.79,.87-7.29-.19-1.26-.38-2.22-1.14-4.14-2.65C25.2,1.29,25.3,.26,23.92,.03c-2.48-.4-3.17,2.84-7,3.53-2.65,.47-3.24-.91-6.31-.33-.87,.17-3.31,.63-4.9,2.47-1.95,2.26-.43,4.08-1.73,8.77-1.12,4.07-2.63,4.01-3.55,8.28-.16,.75-.64,3.17-.33,6.31,.16,1.68,.45,4.62,2.05,7.21,.7,1.14,2.24,3.15,8.36,5.79,3.22,1.39,7.97,3.07,14.1,3.95l.83,.14c.09,.27,.22,.68,.36,1.17,0,0,.49,1.73,.76,3.55,1.15,7.8,.7,14.76,.7,14.76-.76,11.67,12.22,19.91,20.59,41.86,1.64,4.29,4.71,13.34,9.74,16.01,.96,.51,3.38,1.53,4.53,3.98,.87,1.87,.24,2.91,1.4,4.38,1.34,1.69,2.86,1.19,3.86,2.88,.75,1.28,.03,1.81,.65,3.6,.65,1.88,2.34,3.88,4.33,4.19,1.82,.28,2.18-1.11,4.02-1.21,3.8-.2,4.48,5.6,9.25,6.43,2.69,.47,4.7-.99,7.06,.58,.71,.47,1.05,.95,1.95,1.14,1.79,.38,2.52-1.08,4.27-1.07,2.21,.02,2.45,2.37,4.76,2.57,1.9,.17,4.09-1.22,4.88-3.18,.39-.98,.35-1.89,.28-2.43l1.89-1.79,2.61-.14,2.4-2.11,14.59,5.44-1.22,1.64-2.79-.81-1.02,1.36,6.63,5.05,1.52-2.04-1.94-1.66-.04-1.51,1-1.91,6.98,2.87-.31,2.72,1.4,.7,1.55-.54,1.12-1.31,16.37,5.48-.04,16.16c-6.35,.67-21.48,3.17-35.16,14.97-2.28,1.96-10.71,9.53-16.55,22.57-6.09,13.59-5.98,25.6-5.77,30.06,.25,5.24,1.3,22.22,14.06,37.48,8.71,10.41,18.64,14.96,23.1,16.94,5.74,2.55,22.87,9.86,43.87,4.07,21.33-5.88,32.59-21.4,36.21-27,2.78-4.3,12.14-19.92,10.16-39.6-1.3-12.84-7.03-23.56-9.52-27.78-1.04-1.77-1.99-3.19-2.67-4.18l3.88-4.71c7.15,.11,11.33-1.96,13.83-3.91,5.86-4.55,7.43-12.16,11.36-11.92,2.25,.13,2.91,2.7,5.06,2.33,2.95-.5,4.36-5.75,4.51-6.32,.78-3.03-.28-3.42,.41-5.25,1.67-4.45,8.25-3.19,10.55-7.79,1.22-2.45,.88-5.87-.81-7.2-.49-.38-1.87-1.21-7.99,1.05-7.89,2.91-9.72,5.79-16.2,7.08-2.66,.53-3.99,.8-5.71,.48-5.71-1.05-7.53-6.44-13.99-7.75-1.51-.31-2.78-.29-3.52-.25l-22.88-80.91-.69-13.39,1.13-.46,4.37,2.87,18.05,1.66c-.12,2.39-.22,5.75-.1,9.76,.27,9.42,.56,19.26,4.49,29.18,5.71,14.4,16.54,22.45,20.36,25.22,2.31,1.68,13.34,9.42,29.98,11.48,6.19,.77,21.9,2.49,38.28-6.53,16.94-9.32,23.89-24.23,26.5-30.06,2.3-5.13,8.78-20.12,4.94-39.36-1.03-5.18-4.86-20.96-19.04-33.87-10.85-9.88-22.24-13.05-26.87-14.28Zm-86.53,253.46c-18.32,24.58-53.09,29.65-77.67,11.33-24.58-18.32-29.65-53.09-11.33-77.67,18.32-24.58,53.09-29.65,77.67-11.33,24.58,18.32,29.65,53.09,11.33,77.67Zm-24.68-207.73l-.64,7.35,22.41,78.53-13.54-12.75-8.02-3.32-1.26-5.05-4.3-5.26-7.04-5.25,10.04-56.02,2.35,1.75Zm-15.87,27.6c-.58-.05-.28-3.05-2.52-7.06-.76-1.35-4.01-6.78-8.59-6.92-1.31-.04-2.31,.37-2.74,.55-16.05,6.74-33.43,10.54-48.65,18.99-2.62,1.45-6.28,3.57-9.77,2.32-1.91-.69-2.34-1.87-8.51-7.38-2.36-2.11-2.5-2.11-3.09-2.82-2.77-3.31-3.27-7.39-3.28-10.22l49.07-18.16,8.77-3.06,.4-6.45,7.45-.15,5.04,4.27,6.57-.81,4.24-1.51,1.74-2.33,5.76,4.81,4.66,1.4c-3.83,27.46-5.65,34.63-6.55,34.55Zm156.72,21.86c-18.32,24.58-53.09,29.65-77.67,11.33s-29.65-53.09-11.33-77.67c18.32-24.58,53.09-29.65,77.67-11.33,24.58,18.32,29.65,53.09,11.33,77.67Z"/>
  <line class="cls-2" x1="129.76" y1="195.49" x2="203.32" y2="284.48"/>
  <line class="cls-2" x1="122.75" y1="274.38" x2="207.44" y2="200.38"/>
  <line class="cls-2" x1="168.15" y1="181.68" x2="165.14" y2="299.46"/>
  <line class="cls-2" x1="223.36" y1="237.64" x2="109.6" y2="235.63"/>
  <ellipse class="cls-3" cx="165.34" cy="235.89" rx="2.29" ry="2.13" transform="translate(-39.47 33.32) rotate(-10.29)"/>
  <line class="cls-2" x1="165.58" y1="181.69" x2="162.57" y2="299.46"/>
  <line class="cls-2" x1="120.87" y1="272.23" x2="205.56" y2="198.24"/>
  <line class="cls-2" x1="130.69" y1="192.04" x2="204.26" y2="281.03"/>
  <line class="cls-2" x1="223.4" y1="235.38" x2="109.64" y2="233.36"/>
  <line class="cls-2" x1="245.57" y1="37.97" x2="319.14" y2="126.96"/>
  <line class="cls-2" x1="238.57" y1="116.86" x2="323.25" y2="42.87"/>
  <line class="cls-2" x1="283.97" y1="24.17" x2="280.96" y2="141.94"/>
  <line class="cls-2" x1="339.18" y1="80.13" x2="225.42" y2="78.11"/>
  <ellipse class="cls-3" cx="281.16" cy="78.37" rx="2.29" ry="2.13" transform="translate(-9.48 51.47) rotate(-10.29)"/>
  <line class="cls-2" x1="281.39" y1="24.17" x2="278.38" y2="141.94"/>
  <line class="cls-2" x1="236.69" y1="114.71" x2="321.38" y2="40.72"/>
  <line class="cls-2" x1="246.51" y1="34.53" x2="320.07" y2="123.51"/>
  <line class="cls-2" x1="339.22" y1="77.86" x2="225.46" y2="75.85"/>
</svg>