<?xml version="1.0" encoding="UTF-8"?>
<svg id="Layer_1" data-name="Layer 1" xmlns="http://www.w3.org/2000/svg" viewBox="0 0 231.89 237.63">
  <defs>
    <style>
      .cls-1 {
        fill: #ed1942;
      }

      .cls-2 {
        fill: none;
      }

      .cls-2, .cls-3 {
        stroke: #ee203f;
        stroke-miterlimit: 10;
      }

      .cls-3 {
        fill: #ee203f;
        stroke-width: 3px;
      }
    </style>
  </defs>
  <path class="cls-1" d="M228.21,171.5c-2.05-4.99-6.03-12.26-13.5-18.49-2.22-1.85-6.73-5.26-13.27-7.77-6.42-2.46-11.11-2.64-19.68-2.97-3.25-.13-5.03,.09-6.6,1.19-1.19,.83-1.8,1.85-2.45,1.63-1.18-.39-.18-4.1-2.19-5.44-.74-.49-1.27-.26-1.83-.95-.8-.98-.3-2.19-.99-2.56-.59-.32-1.23,.44-1.93,.13-.7-.31-.82-1.42-.87-1.81-.63-4.73-3.32-8.95-4.95-13.44-.53-1.45-.57-1.52-.64-1.89-.53-2.73,.72-4.68-.6-6.63,0,0-.16-.28-2.18-3.21,2.76-3.9,3.72-4.52,3.72-4.52,1.43-.93,2.87-1.02,4.47-1.12,3.58-.22,4.49,1.06,6.64,.29,1.77-.63,3.45-2.33,3.19-3.62-.24-1.2-2.1-1.73-4.15-2.29-5.03-1.38-6.41,.1-8.44-1.35-2.47-1.77-1.54-4.78-4-5.7-1.43-.53-2.25,.3-4.31-.5-1.5-.59-1.34-1.14-2.7-1.59-2.23-.73-3.83,.36-4.49-.49-.41-.53,.12-1.08-.02-1.97-.31-2-3.54-2.81-6.31-4.06-2.3-1.04-3.86-2.27-6.97-4.73-8.07-6.38-6.81-12.23-13.48-16.2-.92-.55-2.68-1.47-4.05-3.48-1.28-1.88-.67-2.41-2.06-5.51-1.59-3.53-2.89-3.97-3.08-6.5-.09-1.28,.21-1.55-.03-3.02-.39-2.37-1.4-2.9-1.04-4.01,.47-1.45,2.41-1.18,2.99-2.79,.47-1.33-.61-2.22-.03-3.02,.53-.72,1.65-.29,4.02-.54,2.22-.24,3.58-.38,4.26-1.3,.72-.96-.08-1.75-.06-6.03,0-1.66,.13-2.34,.47-3.02,.71-1.4,1.63-1.41,1.74-2.28,.16-1.39-2.14-1.78-3.06-4.24-.33-.88-.31-1.76-.29-3.52,.05-3,.68-3.39,.21-4.27-.85-1.59-3-.58-5.05-2.46-1.42-1.31-.89-2.25-2.55-3.74-.47-.43-1.8-1.62-3.54-1.72-2.14-.13-2.52,1.53-5.75,2.82-2.81,1.12-3.43,.24-6.27,1.57-.5,.23-2.08,1.01-3.74,2.55-.89,.82-2.44,2.26-3.22,4.3-.34,.89-.83,2.65,.32,7.28,.6,2.44,1.71,5.88,3.86,9.76l.28,.54c-.11,.17-.29,.42-.51,.72,0,0-.77,1.03-1.7,1.98-3.95,4.04-8.12,6.8-8.12,6.8-6.99,4.63-6.06,15.62-14.95,29.91-1.74,2.8-5.57,8.47-4.91,12.51,.13,.77,.6,2.59-.31,4.31-.69,1.31-1.56,1.4-1.89,2.7-.38,1.5,.56,2.15,.03,3.45-.4,.98-1.02,.81-1.77,1.94-.79,1.19-1.2,3.02-.51,4.29,.63,1.16,1.58,.76,2.44,1.77,1.77,2.08-1.25,4.99,.35,8.07,.9,1.74,2.6,2.25,2.73,4.28,.04,.61-.09,1.02,.2,1.61,.56,1.18,1.71,.97,2.46,1.97,.95,1.27-.29,2.43,.6,3.83,.73,1.16,2.47,1.8,3.93,1.4,.73-.2,1.23-.62,1.51-.89l1.84,.3,1.21,1.43,2.24,.46,3.22,10.68h-1.46s-.75-1.93-.75-1.93h-1.22s0,5.98,0,5.98l1.83-.02,.1-1.83,.85-.68,1.52-.26,1.39,5.23-1.69,1,.21,1.1,.98,.65,1.23,.07,3.98,11.72-9.24,6.99c-3.14-3.33-11.13-10.88-23.8-13.56-2.11-.45-10.09-1.97-20.06,.35-10.4,2.43-17.2,7.7-19.65,9.75-2.88,2.41-12.11,10.38-15.28,24.29-2.16,9.49-.45,17.13,.36,20.53,1.04,4.38,4.3,17.33,16.72,26.8,12.61,9.62,26.36,9.31,31.12,8.94,3.66-.28,16.64-1.72,27.01-11.39,6.76-6.31,10.39-14.24,11.72-17.49,.56-1.36,.96-2.52,1.23-3.34l4.37,.17c3.04,4.13,6.04,5.61,8.23,6.19,5.14,1.37,10.16-1.03,11.73,1.31,.9,1.34-.28,2.83,.87,3.9,1.57,1.47,5.18,0,5.56-.17,2.06-.87,1.83-1.64,3.18-2.04,3.26-.98,5.4,3.33,9.02,2.63,1.93-.37,3.73-2.05,3.75-3.59,0-.44-.12-1.59-4.07-4.1-5.08-3.24-7.52-3.03-11.07-6.17-1.46-1.29-2.19-1.93-2.75-3.05-1.88-3.71,.4-7.09-1.65-11.35-.48-1-1.04-1.71-1.39-2.12l36.24-48.17,7.34-6.2,.75,.44,.26,3.74,6.88,11.02c-1.41,.97-3.37,2.37-5.62,4.18-5.25,4.24-10.75,8.68-14.7,15.23-5.74,9.51-5.63,19.18-5.55,22.56,.05,2.05,.42,11.7,6.46,22.09,2.25,3.86,8.08,13.58,20.34,19.01,12.67,5.62,24.2,3.11,28.65,2.08,3.93-.91,15.29-3.72,24.61-14.26,2.51-2.84,9.85-11.87,11.06-25.56,.93-10.48-2.2-18.35-3.51-21.53ZM46.04,232.13c-21.97,.21-39.96-17.42-40.17-39.4-.21-21.97,17.42-39.96,39.4-40.17,21.97-.21,39.96,17.42,40.17,39.4,.21,21.97-17.42,39.96-39.4,40.17Zm107.82-104.24l-4.47,2.83-35.08,46.87,1.39-13.26-1.58-6.02,2.33-2.91,1.13-4.73-.06-6.29,36.32-18.58,.02,2.1Zm-22.64,2.92c-.22-.35,1.62-1.48,2.94-4.5,.44-1.02,2.13-5.23,.22-7.91-.55-.77-1.21-1.16-1.5-1.33-10.81-6.23-20.52-14.5-31.95-19.52-1.97-.86-4.76-2.03-5.56-4.57-.44-1.39,.05-2.15,.52-8.06,.18-2.26,.12-2.34,.27-2.98,.69-3.02,2.8-5.07,4.41-6.31l31.66,20.12,5.55,3.67,3.85-2.57,3.32,4.19-.25,4.73,3.31,3.4,2.7,1.76,2.09-.02-.25,5.37,1.22,3.27c-17.33,9.73-22.21,11.81-22.56,11.25Zm55.54,98.91c-21.97,.21-39.96-17.42-40.17-39.4-.21-21.97,17.42-39.96,39.4-40.17,21.97-.21,39.96,17.42,40.17,39.4,.21,21.97-17.42,39.96-39.4,40.17Z"/>
  <line class="cls-2" x1="54.08" y1="153.16" x2="35.23" y2="233.75"/>
  <line class="cls-2" x1="6.03" y1="183.4" x2="85" y2="199.6"/>
  <line class="cls-2" x1="78.62" y1="169.07" x2="10.11" y2="218.47"/>
  <line class="cls-2" x1="70.65" y1="224.86" x2="22.43" y2="159.08"/>
  <ellipse class="cls-3" cx="46.47" cy="191" rx="1.53" ry="1.64" transform="translate(-125.82 96.36) rotate(-47.54)"/>
  <line class="cls-2" x1="77.5" y1="167.6" x2="8.99" y2="217"/>
  <line class="cls-2" x1="6.44" y1="181.39" x2="85.41" y2="197.6"/>
  <line class="cls-2" x1="56.45" y1="152.2" x2="37.6" y2="232.79"/>
  <line class="cls-2" x1="71.96" y1="223.9" x2="23.74" y2="158.12"/>
  <line class="cls-2" x1="194.22" y1="150.88" x2="175.37" y2="231.47"/>
  <line class="cls-2" x1="146.17" y1="181.12" x2="225.14" y2="197.32"/>
  <line class="cls-2" x1="218.76" y1="166.79" x2="150.25" y2="216.19"/>
  <line class="cls-2" x1="210.79" y1="222.58" x2="162.57" y2="156.8"/>
  <ellipse class="cls-3" cx="186.61" cy="188.72" rx="1.53" ry="1.64" transform="translate(-78.59 199.01) rotate(-47.54)"/>
  <line class="cls-2" x1="217.64" y1="165.32" x2="149.13" y2="214.72"/>
  <line class="cls-2" x1="146.58" y1="179.11" x2="225.55" y2="195.32"/>
  <line class="cls-2" x1="196.59" y1="149.92" x2="177.74" y2="230.51"/>
  <line class="cls-2" x1="212.1" y1="221.62" x2="163.88" y2="155.84"/>
</svg>